PathFileType	3	(X/Y/Z)	D:\Jess\Healthy\Labelled\HA12\20250414\SRRun02.trc
DataRate	CameraRate	NumFrames	NumMarkers	Units	OrigDataRate	OrigDataStartFrame	OrigNumFrames
250.0	250.0	4	37	mm	250.0	35625	2501
Frame#	Time	C7			T10			CLAV			LSHO			RSHO			LASIS			RASIS			LPSIS			RPSIS			LILCR			RILCR			LGTR			LTHI			LLTHI			LLEP			LMEP			LPSH			LLSH			LDSH			LLMAL			LMMAL			LTOE			L5TH			LHEE			RGTR			RTHI			RLTHI			RLEP			RMEP			RPSH			RLSH			RDSH			RLMAL			RMMAL			RTOE			R5TH			RHEE			
		X1	Y1	Z1	X2	Y2	Z2	X3	Y3	Z3	X4	Y4	Z4	X5	Y5	Z5	X6	Y6	Z6	X7	Y7	Z7	X8	Y8	Z8	X9	Y9	Z9	X10	Y10	Z10	X11	Y11	Z11	X12	Y12	Z12	X13	Y13	Z13	X14	Y14	Z14	X15	Y15	Z15	X16	Y16	Z16	X17	Y17	Z17	X18	Y18	Z18	X19	Y19	Z19	X20	Y20	Z20	X21	Y21	Z21	X22	Y22	Z22	X23	Y23	Z23	X24	Y24	Z24	X25	Y25	Z25	X26	Y26	Z26	X27	Y27	Z27	X28	Y28	Z28	X29	Y29	Z29	X30	Y30	Z30	X31	Y31	Z31	X32	Y32	Z32	X33	Y33	Z33	X34	Y34	Z34	X35	Y35	Z35	X36	Y36	Z36	X37	Y37	Z37	

626	142.496	1250.017428128775	1443.73460211852	-342.4180226509554	1133.553742683189	1172.387262031761	-380.2568717498771	1380.018801515973	1301.721320307674	-347.6209534600793	1324.238119947632	1392.681615242323	-507.16818791068	1317.171182515728	1353.114221888457	-188.7152505842478	1305.06153748622	891.1907641757548	-492.2741713821437	1297.975734132875	911.6946880116623	-247.2612559484936	1100.957483069448	979.711381962071	-404.615678121947	1099.455273412781	980.6855698784176	-366.9806722468654	1256.440591425816	954.5412816387333	-550.1427080368924	1212.293539204662	970.862358188921	-194.1493315629678	1269.116620308132	769.4657745584268	-549.707552696637	1345.291258617639	656.2889434968652	-485.7298995373828	1263.081205758956	592.2229329605835	-552.8026932296701	1260.179476754344	466.5020667027222	-537.8815296423753	nan	nan	nan	1202.915483079817	372.3489733448135	-494.7005888813652	1067.68333050691	409.7503244209518	-539.0926574282544	986.1335728160068	316.7133213442421	-486.0436818568164	882.9015309158131	342.331209363643	-500.4222531739189	nan	nan	nan	861.5655204593158	180.4149979512457	-506.0155904473448	826.4906390424673	209.4285727593703	-534.0066947559438	845.0151461274253	394.0846010492018	-436.5593886663529	1240.529714098797	810.2284712840233	-184.1195825234936	1388.690287093898	726.1867632072128	-279.7440001183613	1296.085338718236	606.577185103203	-218.1751321739543	1335.727333976909	483.5793564420969	-238.7984328992341	nan	nan	nan	1371.327191884115	382.4866123299725	-310.5679193372848	1297.405348938879	306.9723288715546	-245.1455245587003	1291.835203116566	172.268496407618	-342.7175653259995	1223.933308568369	110.5631969051536	-304.8297628526569	nan	nan	nan	1372.994627378895	60.80461849920229	-320.7675765147385	1335.823077797423	35.31365350194532	-275.3100067114259	1141.444484043684	85.60278755342776	-359.4686616975276	
627	142.5	1249.841513314934	1442.648733954881	-341.4838420036252	1132.506529768701	1171.518043624618	-379.6067737775916	1379.532499058047	1300.386046189568	-348.470390529582	1322.582605958983	1391.614062325548	-507.3074762037414	1318.592050762512	1350.934661058134	-188.8456829816509	1304.017740388636	889.3028082642044	-492.1990987929441	1296.838383065553	910.5821739966516	-246.9213998150811	1099.928861504974	978.6433035557856	-404.6067237993028	1098.486304929761	979.764402080915	-367.0082953565262	1254.957730698019	952.2983385511351	-550.3739954473441	1210.592295481816	969.8579255540034	-193.9637042288048	1269.816312781363	768.8378479893569	-549.8129614506138	1348.357848964717	657.2434442018978	-485.5056409795422	1267.186108863388	592.1548059130989	-553.0005196078102	1266.690999451799	466.4396797100138	-538.087600778228	nan	nan	nan	1210.284594648824	372.3194661500606	-494.5471134260557	1075.064964715779	409.1152203633995	-539.7636338698978	993.7278709434889	316.1919998205273	-486.0460190482335	890.4225218206078	341.3823329700446	-500.7328869903938	nan	nan	nan	871.1138444204644	179.279322018795	-506.4834735245631	835.9374892624267	207.8841159850756	-534.7855619309228	851.2643173010542	392.7170471903716	-437.1123643993367	1238.450665665359	808.9330730835753	-184.0145757542477	1386.89544640871	723.3701650321117	-278.0920599714073	1292.868077547603	604.8114697838812	-217.8829640007847	1332.081675541985	481.6362347857667	-238.4764864665325	nan	nan	nan	1366.102335374522	380.2084070212316	-310.1376264376731	1290.847680181462	305.8841969998537	-245.0664098821192	1282.415937205584	171.5663470970634	-342.7638974840486	1213.499347011096	111.091788040139	-304.8056900305934	nan	nan	nan	1361.87159177957	60.60909875159606	-320.6673978135465	1324.572011889944	35.5694787374193	-275.1639174913867	1130.418077632422	86.04761865118054	-359.4656019413354	
628	142.504	1249.629378081628	1441.776094639331	-340.5669472862047	1131.501488501448	1170.889213614799	-378.90100955918	1379.049322164132	1299.365287468205	-349.3901457193808	1320.848879459331	1390.84658625977	-507.4393723354074	1320.045818326796	1349.06615528755	-189.076406578741	1302.985156802984	887.9771711715507	-492.1602296695881	1295.759182222764	909.6991832028203	-246.6343078527216	1098.947790280857	977.8917429618207	-404.4870329307486	1097.567987634642	979.1329138603894	-366.9171682706858	1253.386851328893	950.6049145178156	-550.5723375567143	1209.035279459546	969.0697971931281	-193.7649328237571	1270.338063935139	768.5603131533459	-549.9708054090929	1351.349222157948	658.558040554579	-485.1288559630925	1271.283131156919	592.4456193622441	-553.145868029726	1273.217016846266	466.7152786351378	-538.2256872449509	nan	nan	nan	1217.729081002964	372.5460152820326	-494.3007602514715	1082.511262415528	408.5309468345181	-540.3572841545428	1001.486020913825	315.5889395119222	-485.9939343840326	898.0664124157544	340.1718405648358	-501.0096301272715	nan	nan	nan	881.087968260967	177.8864328602304	-506.8811905006384	845.7705873486368	206.0124558920789	-535.502027211053	857.5388559395051	391.0105363951762	-437.6515880703491	1236.251892771528	807.7707835694454	-183.9705006847876	1384.875910606368	720.5263260297036	-276.4149836805359	1289.30969027218	603.1414092262668	-217.6245920466553	1327.813485448563	479.658668024289	-238.1501349559854	nan	nan	nan	1360.401194007843	377.8980415083567	-309.6306232247229	1283.800885711586	304.7668203866133	-244.956180880956	1272.768158548806	170.9003090233042	-342.7611615736395	1202.909592856943	111.5977543410125	-304.7377278323508	nan	nan	nan	1350.653035799944	60.42162846518362	-320.5253831319574	1313.247703457603	35.78276884722725	-275.0105057621939	1119.296657999083	86.44522111809853	-359.4447931538568	
629	142.508	1249.375109870855	1441.118279504703	-339.6710982774674	1130.550645401341	1170.489968725005	-378.1348967117787	1378.574587690743	1298.657355111895	-350.3773965223116	1319.032927818529	1390.386822729978	-507.5648789207661	1321.523767664006	1347.523899159176	-189.401026869005	1301.97555859615	887.2267321219275	-492.156453620716	1294.750580301651	909.0308467645858	-246.3941740355516	1098.018604021442	977.4398194656052	-404.256954045683	1096.705245432878	978.7731976784428	-366.7082719836282	1251.74556463573	949.4644355120287	-550.7401493324143	1207.637901387477	968.4818827259276	-193.5491978165327	1270.69219283021	768.6241678306236	-550.1758286786511	1354.2491982526	660.2252477862002	-484.6118809736901	1275.362941411046	593.0892335394967	-553.240346331829	1279.741104144091	467.3264036032647	-538.2986208229557	nan	nan	nan	1225.229320053232	373.0287771963745	-493.963648062778	1090.008248894279	407.9876099103126	-540.8709487263891	1009.391749980281	314.9012797144492	-485.8872693417039	905.8195363140318	338.6950949088302	-501.2512400662598	nan	nan	nan	891.4671222925899	176.2451902101432	-507.2019127972726	855.9694534921701	203.8214739453335	-536.1456116994528	863.8358638980845	388.9587276510558	-438.1740853746167	1233.966857819267	806.7430745488326	-183.983529740713	1382.637341627572	717.6723236023299	-274.757177406991	1285.412237173782	601.5822089840384	-217.4096342902754	1322.91782032412	477.6612256620163	-237.8323670120463	nan	nan	nan	1354.229607030935	375.5726855173456	-309.0716334438497	1276.282421690918	303.6312533782255	-244.828577904488	1262.907145582586	170.2676311926027	-342.7217865928868	1192.175767999495	112.0762519888184	-304.636141779153	nan	nan	nan	1339.353030778966	60.21736350195281	-320.3574472397174	1301.854303630406	35.94112778184045	-274.8573261420827	1108.086552301582	86.80937279433223	-359.4082309629982	
